<?xml version="1.0" encoding="utf-8" ?>
<svg baseProfile="tiny" height="872" version="1.2" width="1001" xmlns="http://www.w3.org/2000/svg" xmlns:ev="http://www.w3.org/2001/xml-events" xmlns:xlink="http://www.w3.org/1999/xlink"><defs /><path d="M 475,25 L 474,26 L 469,26 L 469,27 L 468,28 L 457,28 L 456,27 L 453,27 L 452,28 L 451,28 L 451,29 L 450,30 L 443,30 L 442,29 L 439,29 L 438,30 L 437,30 L 437,31 L 436,32 L 431,32 L 430,31 L 427,31 L 427,33 L 426,34 L 421,34 L 420,33 L 417,33 L 417,35 L 416,36 L 413,36 L 412,35 L 409,35 L 409,37 L 408,38 L 401,38 L 401,39 L 400,40 L 397,40 L 396,39 L 393,39 L 393,41 L 392,42 L 391,42 L 390,41 L 387,41 L 387,43 L 386,44 L 381,44 L 381,45 L 380,46 L 375,46 L 375,47 L 374,48 L 373,48 L 372,47 L 369,47 L 369,49 L 368,50 L 364,50 L 363,51 L 359,51 L 359,53 L 358,54 L 355,54 L 355,55 L 354,56 L 350,56 L 349,57 L 345,57 L 343,59 L 341,59 L 339,61 L 337,61 L 335,63 L 333,63 L 331,65 L 330,65 L 330,66 L 328,68 L 326,68 L 324,70 L 323,70 L 323,71 L 322,72 L 318,72 L 317,73 L 316,73 L 316,74 L 314,76 L 313,76 L 313,77 L 312,78 L 309,78 L 309,79 L 308,80 L 307,80 L 307,81 L 306,82 L 303,82 L 303,83 L 302,84 L 301,84 L 301,85 L 300,86 L 298,86 L 296,88 L 294,88 L 293,89 L 292,89 L 292,90 L 290,92 L 289,92 L 289,93 L 288,94 L 287,94 L 287,95 L 286,96 L 285,96 L 285,97 L 284,98 L 282,98 L 280,100 L 279,100 L 279,101 L 278,102 L 277,102 L 277,103 L 276,104 L 275,104 L 275,105 L 274,106 L 272,106 L 271,107 L 270,107 L 270,108 L 256,122 L 255,122 L 255,123 L 254,124 L 253,124 L 253,125 L 245,133 L 244,133 L 244,134 L 243,135 L 243,137 L 242,138 L 241,138 L 241,139 L 240,140 L 239,140 L 239,141 L 238,142 L 237,142 L 237,143 L 235,145 L 234,145 L 234,146 L 233,147 L 232,147 L 232,148 L 231,149 L 231,151 L 227,155 L 227,157 L 226,158 L 225,158 L 225,159 L 224,160 L 223,160 L 223,161 L 221,163 L 220,163 L 220,164 L 219,165 L 219,167 L 218,168 L 217,168 L 217,171 L 216,172 L 215,172 L 215,173 L 214,174 L 213,174 L 213,177 L 212,178 L 211,178 L 211,179 L 209,181 L 208,181 L 208,182 L 207,183 L 207,185 L 205,187 L 204,187 L 204,188 L 203,189 L 203,193 L 202,194 L 201,194 L 201,195 L 199,197 L 199,199 L 197,201 L 196,201 L 196,202 L 194,204 L 194,206 L 193,207 L 193,211 L 192,212 L 191,212 L 191,215 L 190,216 L 189,216 L 189,219 L 188,220 L 186,220 L 186,222 L 184,224 L 184,226 L 183,227 L 183,231 L 181,233 L 181,237 L 180,238 L 178,238 L 178,241 L 179,242 L 179,243 L 178,244 L 177,244 L 177,247 L 176,248 L 175,248 L 175,253 L 174,254 L 172,254 L 172,257 L 173,258 L 173,259 L 172,260 L 170,260 L 170,263 L 171,264 L 171,265 L 170,266 L 168,266 L 168,269 L 169,270 L 169,271 L 168,272 L 167,272 L 167,279 L 166,280 L 165,280 L 165,287 L 164,288 L 163,288 L 163,295 L 162,296 L 161,296 L 161,297 L 160,298 L 160,301 L 161,302 L 161,307 L 160,308 L 159,308 L 159,309 L 158,310 L 158,313 L 159,314 L 159,321 L 158,322 L 157,322 L 157,323 L 156,324 L 156,327 L 157,328 L 157,343 L 156,344 L 155,344 L 155,345 L 154,346 L 154,357 L 155,358 L 155,375 L 154,376 L 154,387 L 155,388 L 155,393 L 156,393 L 157,394 L 157,403 L 156,404 L 156,409 L 157,410 L 157,415 L 158,415 L 159,416 L 159,419 L 158,420 L 158,423 L 159,424 L 159,427 L 160,427 L 161,428 L 161,431 L 160,432 L 160,435 L 161,436 L 161,437 L 162,437 L 163,438 L 163,441 L 162,442 L 162,445 L 164,445 L 165,446 L 165,455 L 166,455 L 167,456 L 167,457 L 166,458 L 166,461 L 168,461 L 169,462 L 169,465 L 168,466 L 168,469 L 170,469 L 171,470 L 171,471 L 170,472 L 170,475 L 172,475 L 173,476 L 173,477 L 172,478 L 172,481 L 174,481 L 175,482 L 175,483 L 174,484 L 174,487 L 176,487 L 177,488 L 177,493 L 178,493 L 179,494 L 179,497 L 180,497 L 181,498 L 181,504 L 182,505 L 182,507 L 184,507 L 185,508 L 185,512 L 187,514 L 187,516 L 189,518 L 189,520 L 191,522 L 191,523 L 192,523 L 193,524 L 193,527 L 191,529 L 190,529 L 189,528 L 177,528 L 176,527 L 176,526 L 175,526 L 174,525 L 171,525 L 170,526 L 153,526 L 152,525 L 149,525 L 148,526 L 147,526 L 147,527 L 146,528 L 141,528 L 140,527 L 137,527 L 137,529 L 136,530 L 135,530 L 134,529 L 134,528 L 133,529 L 131,529 L 131,531 L 130,532 L 129,532 L 128,531 L 128,530 L 127,531 L 125,531 L 125,533 L 124,534 L 121,534 L 121,535 L 120,536 L 117,536 L 117,537 L 116,538 L 112,538 L 111,539 L 110,539 L 110,540 L 108,542 L 107,542 L 107,543 L 106,544 L 104,544 L 100,548 L 99,548 L 99,549 L 98,550 L 97,550 L 97,551 L 96,552 L 95,552 L 95,553 L 94,554 L 93,554 L 93,555 L 92,556 L 91,556 L 91,557 L 87,561 L 86,561 L 86,562 L 85,563 L 85,565 L 84,566 L 83,566 L 83,569 L 82,570 L 81,570 L 81,571 L 80,572 L 79,572 L 79,575 L 78,576 L 77,576 L 77,579 L 76,580 L 75,580 L 75,583 L 74,584 L 72,584 L 72,587 L 73,588 L 73,589 L 72,590 L 71,590 L 71,593 L 68,596 L 68,599 L 69,600 L 69,603 L 68,604 L 66,604 L 66,607 L 67,608 L 67,617 L 66,618 L 65,618 L 65,623 L 64,624 L 64,627 L 65,628 L 65,633 L 66,633 L 67,634 L 67,643 L 66,644 L 66,647 L 68,647 L 69,648 L 69,651 L 68,652 L 68,655 L 70,655 L 71,656 L 71,657 L 70,658 L 70,661 L 72,661 L 73,662 L 73,665 L 74,665 L 75,666 L 75,669 L 76,669 L 77,670 L 77,673 L 78,673 L 79,674 L 79,678 L 80,679 L 80,680 L 81,680 L 83,682 L 83,683 L 84,683 L 85,684 L 85,685 L 86,685 L 87,686 L 87,688 L 88,689 L 88,690 L 89,690 L 90,691 L 90,692 L 91,692 L 92,693 L 92,694 L 93,694 L 94,695 L 94,696 L 95,696 L 96,697 L 98,697 L 99,698 L 99,699 L 100,699 L 102,701 L 104,701 L 105,702 L 105,703 L 106,703 L 107,704 L 107,706 L 109,706 L 110,707 L 112,707 L 113,708 L 113,711 L 114,711 L 115,712 L 115,723 L 114,724 L 114,727 L 115,728 L 115,729 L 116,729 L 117,730 L 117,733 L 116,734 L 116,737 L 118,739 L 118,743 L 120,743 L 121,744 L 121,748 L 123,750 L 123,752 L 125,754 L 125,755 L 126,755 L 127,756 L 127,759 L 128,759 L 129,760 L 129,762 L 133,766 L 133,767 L 134,767 L 135,768 L 135,769 L 136,769 L 137,770 L 137,771 L 138,771 L 139,772 L 139,773 L 140,773 L 141,774 L 141,775 L 142,775 L 143,776 L 143,777 L 144,777 L 145,778 L 145,779 L 146,779 L 147,780 L 147,781 L 148,781 L 149,782 L 149,783 L 152,783 L 153,784 L 153,786 L 155,786 L 157,788 L 159,788 L 160,789 L 164,789 L 165,790 L 165,792 L 167,792 L 168,793 L 170,793 L 172,795 L 176,795 L 177,796 L 179,796 L 180,797 L 184,797 L 185,798 L 188,798 L 189,797 L 194,797 L 195,798 L 195,799 L 214,799 L 214,798 L 215,797 L 220,797 L 221,798 L 221,799 L 222,798 L 226,798 L 227,797 L 228,797 L 228,796 L 229,795 L 230,795 L 231,796 L 231,797 L 232,796 L 236,796 L 237,795 L 238,795 L 238,794 L 239,793 L 240,793 L 241,794 L 241,795 L 242,794 L 244,794 L 245,793 L 247,793 L 248,792 L 250,792 L 251,791 L 253,791 L 254,790 L 256,790 L 257,789 L 259,789 L 260,788 L 262,788 L 262,786 L 263,785 L 268,785 L 268,784 L 269,783 L 272,783 L 272,782 L 273,781 L 275,781 L 277,779 L 278,779 L 278,778 L 279,777 L 284,777 L 288,781 L 288,783 L 290,783 L 291,784 L 291,785 L 292,785 L 293,786 L 293,790 L 294,791 L 294,793 L 296,793 L 297,794 L 297,795 L 298,795 L 299,796 L 299,797 L 300,797 L 301,798 L 301,800 L 304,803 L 304,804 L 305,804 L 306,805 L 306,806 L 307,806 L 308,807 L 308,808 L 309,808 L 312,811 L 314,811 L 315,812 L 315,813 L 316,813 L 317,814 L 317,816 L 319,816 L 320,817 L 322,817 L 323,818 L 323,820 L 325,820 L 326,821 L 328,821 L 329,822 L 329,823 L 330,823 L 332,825 L 338,825 L 339,826 L 339,828 L 341,828 L 343,830 L 345,830 L 346,831 L 346,830 L 347,829 L 348,829 L 349,830 L 349,831 L 350,831 L 351,832 L 353,832 L 354,833 L 354,832 L 355,831 L 356,831 L 357,832 L 357,833 L 358,833 L 359,834 L 362,834 L 363,833 L 388,833 L 389,834 L 389,835 L 390,834 L 394,834 L 395,833 L 396,833 L 396,832 L 397,831 L 398,831 L 399,832 L 402,832 L 403,831 L 405,831 L 406,830 L 408,830 L 409,829 L 411,829 L 412,828 L 414,828 L 416,826 L 418,826 L 421,823 L 422,823 L 422,822 L 423,821 L 427,821 L 428,820 L 430,820 L 430,818 L 431,817 L 432,817 L 432,816 L 433,815 L 436,815 L 436,814 L 437,813 L 439,813 L 440,812 L 442,812 L 442,810 L 443,809 L 445,809 L 450,804 L 451,804 L 451,803 L 452,802 L 453,802 L 453,801 L 454,800 L 455,800 L 455,799 L 456,798 L 457,798 L 457,797 L 458,796 L 459,796 L 459,795 L 460,794 L 461,794 L 461,793 L 462,792 L 462,790 L 463,789 L 464,789 L 464,788 L 465,787 L 466,787 L 466,786 L 467,785 L 469,785 L 469,783 L 470,782 L 471,782 L 471,781 L 472,780 L 472,778 L 473,777 L 474,777 L 474,776 L 476,774 L 476,772 L 477,771 L 479,771 L 479,769 L 481,767 L 481,765 L 482,764 L 482,762 L 484,760 L 484,758 L 486,756 L 486,752 L 487,751 L 488,751 L 488,750 L 489,749 L 492,749 L 493,750 L 493,752 L 495,754 L 495,755 L 496,755 L 497,756 L 497,759 L 498,759 L 499,760 L 499,764 L 500,765 L 500,767 L 502,767 L 503,768 L 503,769 L 504,769 L 505,770 L 505,774 L 506,775 L 506,777 L 508,777 L 509,778 L 509,779 L 510,779 L 511,780 L 511,782 L 512,783 L 512,785 L 514,785 L 515,786 L 515,787 L 516,787 L 517,788 L 517,789 L 518,789 L 519,790 L 519,792 L 522,795 L 522,796 L 523,796 L 524,797 L 524,798 L 525,798 L 526,799 L 526,800 L 527,800 L 528,801 L 528,802 L 529,802 L 532,805 L 534,805 L 535,806 L 535,807 L 536,807 L 537,808 L 537,809 L 538,809 L 539,810 L 539,812 L 541,812 L 542,813 L 544,813 L 545,814 L 545,816 L 547,816 L 548,817 L 550,817 L 551,818 L 551,820 L 553,820 L 554,821 L 558,821 L 559,822 L 559,823 L 560,823 L 563,826 L 565,826 L 567,828 L 569,828 L 570,829 L 572,829 L 573,830 L 575,830 L 576,831 L 578,831 L 579,832 L 581,832 L 582,833 L 588,833 L 589,834 L 593,834 L 594,835 L 594,834 L 595,833 L 618,833 L 619,834 L 619,835 L 620,834 L 624,834 L 625,833 L 626,833 L 626,832 L 627,831 L 628,831 L 629,832 L 629,833 L 630,832 L 632,832 L 633,831 L 635,831 L 636,830 L 638,830 L 639,829 L 641,829 L 642,828 L 644,828 L 646,826 L 648,826 L 650,824 L 652,824 L 652,822 L 653,821 L 655,821 L 656,820 L 658,820 L 658,818 L 659,817 L 661,817 L 662,816 L 664,816 L 664,814 L 665,813 L 666,813 L 666,812 L 667,811 L 668,811 L 668,810 L 669,809 L 670,809 L 670,808 L 671,807 L 673,807 L 676,804 L 677,804 L 677,803 L 682,798 L 682,796 L 683,795 L 684,795 L 684,794 L 685,793 L 687,793 L 687,791 L 688,790 L 688,788 L 689,787 L 690,787 L 690,784 L 691,783 L 692,783 L 692,782 L 693,781 L 694,781 L 694,780 L 697,777 L 698,777 L 699,778 L 701,778 L 702,779 L 706,779 L 707,780 L 707,781 L 708,781 L 710,783 L 714,783 L 715,784 L 715,785 L 718,785 L 719,786 L 719,788 L 721,788 L 722,789 L 722,788 L 723,787 L 724,787 L 725,788 L 725,789 L 728,789 L 729,790 L 729,791 L 734,791 L 735,792 L 735,793 L 736,793 L 737,794 L 739,794 L 740,795 L 740,794 L 741,793 L 742,793 L 743,794 L 743,795 L 744,795 L 745,796 L 747,796 L 748,797 L 748,796 L 749,795 L 752,795 L 753,796 L 753,797 L 754,797 L 755,798 L 760,798 L 761,797 L 790,797 L 791,798 L 796,798 L 797,797 L 798,797 L 798,796 L 799,795 L 800,795 L 801,796 L 801,797 L 802,796 L 804,796 L 805,795 L 806,795 L 806,794 L 807,793 L 813,793 L 814,792 L 816,792 L 817,791 L 818,791 L 818,790 L 819,789 L 822,789 L 822,788 L 823,787 L 824,787 L 824,786 L 825,785 L 829,785 L 830,784 L 832,784 L 832,782 L 833,781 L 834,781 L 834,780 L 835,779 L 836,779 L 836,778 L 837,777 L 839,777 L 840,776 L 841,776 L 841,775 L 842,774 L 843,774 L 843,773 L 844,772 L 844,770 L 845,769 L 846,769 L 846,768 L 847,767 L 848,767 L 848,766 L 850,764 L 850,762 L 851,761 L 852,761 L 852,760 L 853,759 L 854,759 L 854,756 L 855,755 L 856,755 L 856,752 L 857,751 L 858,751 L 858,748 L 859,747 L 860,747 L 860,744 L 861,743 L 862,743 L 862,738 L 863,737 L 864,737 L 864,730 L 865,729 L 866,729 L 866,728 L 867,727 L 867,724 L 866,723 L 866,714 L 867,713 L 868,713 L 868,712 L 869,711 L 869,709 L 872,706 L 873,706 L 873,705 L 875,703 L 877,703 L 878,702 L 879,702 L 879,701 L 881,699 L 882,699 L 882,698 L 883,697 L 885,697 L 888,694 L 889,694 L 889,693 L 890,692 L 891,692 L 891,691 L 892,690 L 892,688 L 893,687 L 894,687 L 894,686 L 895,685 L 896,685 L 896,684 L 897,683 L 898,683 L 898,682 L 900,680 L 900,678 L 901,677 L 902,677 L 902,674 L 903,673 L 904,673 L 904,670 L 905,669 L 906,669 L 906,666 L 907,665 L 908,665 L 908,662 L 909,661 L 911,661 L 911,658 L 910,657 L 910,656 L 911,655 L 913,655 L 913,652 L 912,651 L 912,650 L 913,649 L 914,649 L 914,648 L 915,647 L 915,644 L 914,643 L 914,638 L 915,637 L 916,637 L 916,634 L 917,633 L 917,620 L 916,619 L 916,616 L 915,616 L 914,615 L 914,608 L 915,607 L 915,604 L 913,604 L 912,603 L 912,600 L 913,599 L 913,596 L 912,595 L 912,594 L 911,594 L 910,593 L 910,590 L 909,590 L 908,589 L 908,584 L 907,584 L 906,583 L 906,579 L 904,577 L 904,576 L 903,576 L 902,575 L 902,571 L 901,570 L 901,569 L 900,569 L 898,567 L 898,565 L 897,564 L 897,563 L 896,563 L 894,561 L 894,560 L 893,560 L 892,559 L 892,558 L 891,558 L 890,557 L 890,556 L 889,556 L 888,555 L 888,554 L 887,554 L 886,553 L 886,552 L 885,552 L 884,551 L 884,550 L 883,550 L 882,549 L 882,548 L 881,548 L 880,547 L 880,546 L 879,546 L 877,544 L 875,544 L 874,543 L 874,542 L 873,542 L 872,541 L 872,540 L 871,540 L 869,538 L 867,538 L 865,536 L 863,536 L 861,534 L 859,534 L 857,532 L 853,532 L 852,531 L 852,530 L 847,530 L 846,529 L 846,528 L 845,528 L 844,527 L 841,527 L 840,528 L 837,528 L 836,527 L 836,526 L 835,526 L 834,525 L 831,525 L 830,526 L 813,526 L 812,525 L 807,525 L 807,527 L 806,528 L 799,528 L 798,527 L 795,527 L 795,529 L 794,530 L 791,530 L 790,529 L 790,528 L 789,528 L 788,527 L 788,526 L 789,525 L 790,525 L 790,522 L 791,521 L 792,521 L 792,518 L 793,517 L 794,517 L 794,514 L 795,513 L 796,513 L 796,510 L 797,509 L 798,509 L 798,506 L 799,505 L 801,505 L 801,503 L 803,501 L 803,498 L 802,497 L 802,496 L 803,495 L 804,495 L 804,492 L 805,491 L 806,491 L 806,486 L 807,485 L 808,485 L 808,482 L 810,480 L 810,476 L 811,475 L 812,475 L 812,470 L 814,468 L 814,462 L 815,461 L 817,461 L 817,458 L 816,457 L 816,456 L 817,455 L 818,455 L 818,454 L 819,453 L 819,450 L 818,449 L 818,446 L 819,445 L 820,445 L 820,444 L 821,443 L 821,440 L 820,439 L 820,438 L 821,437 L 822,437 L 822,436 L 823,435 L 823,432 L 822,431 L 822,426 L 823,425 L 824,425 L 824,424 L 825,423 L 825,420 L 824,419 L 824,412 L 825,411 L 826,411 L 826,410 L 827,409 L 827,404 L 826,403 L 826,392 L 827,391 L 828,391 L 828,388 L 829,387 L 829,378 L 828,377 L 828,362 L 829,361 L 829,356 L 828,355 L 828,352 L 829,351 L 829,344 L 827,344 L 826,343 L 826,326 L 827,325 L 827,322 L 825,322 L 824,321 L 824,314 L 825,313 L 825,310 L 824,309 L 824,308 L 823,308 L 822,307 L 822,302 L 823,301 L 823,298 L 821,298 L 820,297 L 820,294 L 821,293 L 821,290 L 820,289 L 820,288 L 819,288 L 818,287 L 818,282 L 817,282 L 816,281 L 816,278 L 817,277 L 817,274 L 815,274 L 814,273 L 814,268 L 813,268 L 812,267 L 812,262 L 811,262 L 810,261 L 810,256 L 809,256 L 808,255 L 808,250 L 807,250 L 806,249 L 806,248 L 807,247 L 807,244 L 805,244 L 804,243 L 804,240 L 803,240 L 802,239 L 802,238 L 803,237 L 803,234 L 801,234 L 800,233 L 800,230 L 799,230 L 798,229 L 798,225 L 796,223 L 796,219 L 795,218 L 795,216 L 793,214 L 793,212 L 791,210 L 791,208 L 789,206 L 789,204 L 787,204 L 786,203 L 786,201 L 784,199 L 784,198 L 783,198 L 782,197 L 782,194 L 781,194 L 780,193 L 780,190 L 779,190 L 778,189 L 778,187 L 776,185 L 776,184 L 775,184 L 774,183 L 774,180 L 773,180 L 772,179 L 772,177 L 770,175 L 770,174 L 769,174 L 768,173 L 768,172 L 767,172 L 766,171 L 766,168 L 765,168 L 764,167 L 764,165 L 763,164 L 763,163 L 762,163 L 760,161 L 760,160 L 759,160 L 758,159 L 758,158 L 757,158 L 756,157 L 756,155 L 754,153 L 754,152 L 753,152 L 752,151 L 752,150 L 751,150 L 750,149 L 750,148 L 749,148 L 748,147 L 748,145 L 744,141 L 744,140 L 743,140 L 742,139 L 742,138 L 741,138 L 740,137 L 740,136 L 739,136 L 738,135 L 738,134 L 737,134 L 736,133 L 736,132 L 735,132 L 734,131 L 734,130 L 733,130 L 732,129 L 732,128 L 731,128 L 730,127 L 730,125 L 729,124 L 727,124 L 726,123 L 726,121 L 725,120 L 723,120 L 722,119 L 722,118 L 721,118 L 720,117 L 720,116 L 719,116 L 718,115 L 718,114 L 717,114 L 716,113 L 716,112 L 715,112 L 714,111 L 714,110 L 713,110 L 709,106 L 709,105 L 708,105 L 707,104 L 705,104 L 704,103 L 704,102 L 703,102 L 702,101 L 702,100 L 701,100 L 699,98 L 699,97 L 698,97 L 697,96 L 695,96 L 694,95 L 694,94 L 693,94 L 691,92 L 689,92 L 688,91 L 688,90 L 687,90 L 686,89 L 686,88 L 683,88 L 682,87 L 682,86 L 681,86 L 680,85 L 680,84 L 677,84 L 676,83 L 676,82 L 675,82 L 674,81 L 674,80 L 671,80 L 670,79 L 670,78 L 669,78 L 668,77 L 668,76 L 665,76 L 664,75 L 664,74 L 663,74 L 661,72 L 661,71 L 660,71 L 659,70 L 655,70 L 654,69 L 654,68 L 651,68 L 650,67 L 650,66 L 649,66 L 647,64 L 645,64 L 644,63 L 644,61 L 642,61 L 640,59 L 638,59 L 636,57 L 632,57 L 631,56 L 627,56 L 626,55 L 626,54 L 623,54 L 622,53 L 622,52 L 619,52 L 618,51 L 618,49 L 616,49 L 615,48 L 609,48 L 608,47 L 608,45 L 604,45 L 602,43 L 600,43 L 599,42 L 593,42 L 591,40 L 585,40 L 584,39 L 584,37 L 581,37 L 580,38 L 579,38 L 578,37 L 578,36 L 571,36 L 570,35 L 570,34 L 569,34 L 568,33 L 565,33 L 564,34 L 563,34 L 562,33 L 562,32 L 561,32 L 560,31 L 557,31 L 556,32 L 551,32 L 550,31 L 550,30 L 549,30 L 548,29 L 545,29 L 544,30 L 539,30 L 538,29 L 538,28 L 537,28 L 536,27 L 533,27 L 532,28 L 519,28 L 518,27 L 518,26 L 515,26 L 514,25 L 509,25 L 508,26 L 483,26 L 482,25 Z" fill="#FFFFFF" /></svg>